<?xml version="1.0" encoding="UTF-8"?>
<svg xmlns="http://www.w3.org/2000/svg" width="200" height="39" viewBox="0 0 200 39">
    <g fill="none" fill-rule="evenodd">
        <g fill="#FFF" fill-rule="nonzero">
            <g>
                <path d="M555.071 189.071c0 7.572-4.642 11.143-10.357 11.143h-3.5v-4.5h3.286c3.5 0 5.786-1.857 5.786-6.571 0-4.643-2.215-7-5.929-7-3.571 0-6.143 2.214-6.143 6.928v19h-4.785v-29.928h4.785v2.571h.715c1.571-2.143 4-3.143 6.428-3.143 5.286 0 9.714 3.858 9.714 11.5zm-31.642-1.928l-3.215-.286c-2.5-.214-3.857-.928-3.857-2.357 0-1.714 1.714-2.714 4.143-2.714 2.5 0 4.143 1.214 4.286 2.857h4.643c-.215-4.286-3.5-6.929-8.858-6.929-5.357 0-9 2.857-9 7 0 3.5 2.215 5.715 7.215 6.215l3.285.285c2 .215 3.286.572 3.286 2.5 0 1.715-1.214 2.929-4.5 2.929-3 0-4.5-1.357-5-3.214h-5c.5 4.142 4 7.428 10 7.428 5.643 0 9.286-3 9.286-7.357 0-4-2.572-5.929-6.714-6.357zm50.285 6.214c-.785 1.714-2.571 3.072-5.143 3.072-3.5 0-6.142-2.286-6.142-7.215 0-4.714 2.428-7.357 6.214-7.357 3.357 0 5.286 2 5.428 5.072h-8.642v3.5h13.357v-2.286c0-6.357-4.215-10.5-10.215-10.5-5.571 0-10.928 3.786-10.928 11.571 0 7.786 5.357 11.572 10.928 11.572 5.143 0 8.786-3.143 9.858-7.429h-4.715zm-75.857-15.786c-5.286 0-9.214 2.715-9.643 6.929h5.143c.357-1.571 1.786-2.714 4.5-2.714 3.5 0 4.643 1.857 4.643 4.071v7.572c-2 2.214-4.286 3.285-6.571 3.285-2.358 0-4-1.143-4-3.214 0-2 1.285-3.214 3.785-3.214h3.857v-3.5h-4c-5.5 0-8.571 2.714-8.571 6.928 0 3.929 3 6.929 7.857 6.929 2.714 0 5.143-1.072 6.929-2.429h.714v1.857h4.786V185.5c0-5.5-3.715-7.929-9.429-7.929zm-32.643 22.643H470V170h-4.786v30.214zm20.215-22.071h-5.858l-7 9.214v2.857l7.215 10h5.928l-8.428-11.428 8.143-10.643zm173.857 0l-3.929 8.714c-.928 2.143-1.857 4.143-2.143 5.572h-.714c-.286-1.358-1.214-3.358-2.214-5.5l-3.857-8.786h-5.286L650.429 198l-4.572 10H651l13.714-29.857h-5.428zm-19.286 0h-5.857l-7 9.214v2.857l7.214 10h5.929l-8.429-11.428L640 178.143zm-30.071 9l-3.215-.286c-2.5-.214-3.857-.928-3.857-2.357 0-1.714 1.714-2.714 4.143-2.714 2.5 0 4.143 1.214 4.286 2.857h4.643c-.215-4.286-3.5-6.929-8.858-6.929-5.357 0-9 2.857-9 7 0 3.5 2.215 5.715 7.215 6.215l3.285.285c2 .215 3.286.572 3.286 2.5 0 1.715-1.214 2.929-4.5 2.929-3 0-4.5-1.357-5-3.214h-5c.5 4.142 4 7.428 10 7.428 5.643 0 9.286-3 9.286-7.357-.072-4-2.643-5.929-6.714-6.357zm9.857 13.071h4.785V170h-4.785v30.214zm-31.715-19.5h-.714v-2.571h-4.786v22.071h4.786v-11.5c0-3.928 1.786-6.214 5.429-6.214h3.071v-4.857h-1.786c-3.285-.072-4.714 1.214-6 3.071z" transform="translate(-465 -4444) translate(0 4274)"/>
            </g>
        </g>
    </g>
</svg>
