<svg width="632" height="382" viewBox="0 0 632 382" xmlns="http://www.w3.org/2000/svg" xmlns:xlink="http://www.w3.org/1999/xlink"><defs><linearGradient x1="49.997%" y1="100%" x2="49.997%" y2="-.001%" id="D"><stop stop-color="#FFF" offset="0%"/><stop stop-color="#B0AFB1" offset="100%"/></linearGradient><linearGradient x1="50.001%" y1="100%" x2="50.001%" y2="-.001%" id="C"><stop stop-color="#FFF" offset="0%"/><stop stop-color="#B0AFB1" offset="100%"/></linearGradient><linearGradient x1="50%" y1="-.959%" x2="50%" y2="100.959%" id="d"><stop stop-color="#11100B" offset="0%"/><stop stop-color="#11100B" offset="100%"/></linearGradient><linearGradient x1="50%" y1="0%" x2="50%" y2="100%" id="e"><stop stop-color="#93C021" offset="0%"/><stop stop-color="#93C021" offset="40%"/><stop stop-color="#85B826" offset="50%"/><stop stop-color="#137633" offset="90%"/><stop stop-color="#0E6632" offset="100%"/></linearGradient><linearGradient x1="113.533%" y1="-215.756%" x2="113.533%" y2="131.617%" id="f"><stop stop-color="#93C021" offset="0%"/><stop stop-color="#93C021" offset="40%"/><stop stop-color="#85B826" offset="50%"/><stop stop-color="#137633" offset="90%"/><stop stop-color="#0E6632" offset="100%"/></linearGradient><linearGradient x1="50%" y1="-1014.281%" x2="50%" y2="262.402%" id="g"><stop stop-color="#93C021" offset="0%"/><stop stop-color="#93C021" offset="40%"/><stop stop-color="#85B826" offset="50%"/><stop stop-color="#137633" offset="90%"/><stop stop-color="#0E6632" offset="100%"/></linearGradient><linearGradient x1="124.269%" y1="-74.343%" x2="124.269%" y2="666.576%" id="h"><stop stop-color="#93C021" offset="0%"/><stop stop-color="#93C021" offset="40%"/><stop stop-color="#85B826" offset="50%"/><stop stop-color="#137633" offset="90%"/><stop stop-color="#0E6632" offset="100%"/></linearGradient><linearGradient x1="49.996%" y1="-107.299%" x2="49.996%" y2="340.331%" id="i"><stop stop-color="#93C021" offset="0%"/><stop stop-color="#93C021" offset="40%"/><stop stop-color="#85B826" offset="50%"/><stop stop-color="#137633" offset="90%"/><stop stop-color="#0E6632" offset="100%"/></linearGradient><linearGradient x1="-24.286%" y1="-74.304%" x2="-24.286%" y2="666.616%" id="j"><stop stop-color="#93C021" offset="0%"/><stop stop-color="#93C021" offset="40%"/><stop stop-color="#85B826" offset="50%"/><stop stop-color="#137633" offset="90%"/><stop stop-color="#0E6632" offset="100%"/></linearGradient><linearGradient x1="49.992%" y1="-24.97%" x2="49.992%" y2="907.328%" id="k"><stop stop-color="#93C021" offset="0%"/><stop stop-color="#93C021" offset="40%"/><stop stop-color="#85B826" offset="50%"/><stop stop-color="#137633" offset="90%"/><stop stop-color="#0E6632" offset="100%"/></linearGradient><linearGradient x1="116.035%" y1="-114.997%" x2="116.035%" y2="130.934%" id="l"><stop stop-color="#11100B" offset="0%"/><stop stop-color="#11100B" offset="100%"/></linearGradient><linearGradient x1="49.99%" y1="-396.082%" x2="49.99%" y2="742.002%" id="m"><stop stop-color="#93C021" offset="0%"/><stop stop-color="#93C021" offset="40%"/><stop stop-color="#85B826" offset="50%"/><stop stop-color="#137633" offset="90%"/><stop stop-color="#0E6632" offset="100%"/></linearGradient><linearGradient x1="84.648%" y1="-701.905%" x2="84.648%" y2="322.382%" id="n"><stop stop-color="#93C021" offset="0%"/><stop stop-color="#93C021" offset="40%"/><stop stop-color="#85B826" offset="50%"/><stop stop-color="#137633" offset="90%"/><stop stop-color="#0E6632" offset="100%"/></linearGradient><linearGradient x1="555.556%" y1="-1635.113%" x2="555.556%" y2="1495.19%" id="o"><stop stop-color="#93C021" offset="0%"/><stop stop-color="#93C021" offset="40%"/><stop stop-color="#85B826" offset="50%"/><stop stop-color="#137633" offset="90%"/><stop stop-color="#0E6632" offset="100%"/></linearGradient><linearGradient x1="418.269%" y1="-2837.235%" x2="418.269%" y2="2737.559%" id="p"><stop stop-color="#93C021" offset="0%"/><stop stop-color="#93C021" offset="40%"/><stop stop-color="#85B826" offset="50%"/><stop stop-color="#137633" offset="90%"/><stop stop-color="#0E6632" offset="100%"/></linearGradient><linearGradient x1="555.556%" y1="-1505.517%" x2="555.556%" y2="1624.881%" id="q"><stop stop-color="#93C021" offset="0%"/><stop stop-color="#93C021" offset="40%"/><stop stop-color="#85B826" offset="50%"/><stop stop-color="#137633" offset="90%"/><stop stop-color="#0E6632" offset="100%"/></linearGradient><linearGradient x1="286.511%" y1="-2834.113%" x2="286.511%" y2="2740.983%" id="r"><stop stop-color="#93C021" offset="0%"/><stop stop-color="#93C021" offset="40%"/><stop stop-color="#85B826" offset="50%"/><stop stop-color="#137633" offset="90%"/><stop stop-color="#0E6632" offset="100%"/></linearGradient><linearGradient x1="99.951%" y1="-97.194%" x2="99.951%" y2="126.765%" id="s"><stop stop-color="#93C021" offset="0%"/><stop stop-color="#93C021" offset="40%"/><stop stop-color="#85B826" offset="50%"/><stop stop-color="#137633" offset="90%"/><stop stop-color="#0E6632" offset="100%"/></linearGradient><linearGradient x1="-53.076%" y1="-502.416%" x2="-53.076%" y2="564.214%" id="t"><stop stop-color="#11100B" offset="0%"/><stop stop-color="#11100B" offset="100%"/></linearGradient><linearGradient x1="-247.424%" y1="-1826.444%" x2="-247.424%" y2="1915.974%" id="u"><stop stop-color="#93C021" offset="0%"/><stop stop-color="#93C021" offset="40%"/><stop stop-color="#85B826" offset="50%"/><stop stop-color="#137633" offset="90%"/><stop stop-color="#0E6632" offset="100%"/></linearGradient><linearGradient x1="-378.745%" y1="-1826.444%" x2="-378.745%" y2="1915.974%" id="v"><stop stop-color="#93C021" offset="0%"/><stop stop-color="#93C021" offset="40%"/><stop stop-color="#85B826" offset="50%"/><stop stop-color="#137633" offset="90%"/><stop stop-color="#0E6632" offset="100%"/></linearGradient><linearGradient x1="-247.424%" y1="-1949.951%" x2="-247.424%" y2="1792.331%" id="w"><stop stop-color="#93C021" offset="0%"/><stop stop-color="#93C021" offset="40%"/><stop stop-color="#85B826" offset="50%"/><stop stop-color="#137633" offset="90%"/><stop stop-color="#0E6632" offset="100%"/></linearGradient><linearGradient x1="-378.745%" y1="-1949.951%" x2="-378.745%" y2="1792.331%" id="x"><stop stop-color="#93C021" offset="0%"/><stop stop-color="#93C021" offset="40%"/><stop stop-color="#85B826" offset="50%"/><stop stop-color="#137633" offset="90%"/><stop stop-color="#0E6632" offset="100%"/></linearGradient><linearGradient x1="-40.912%" y1="-437.226%" x2="-40.912%" y2="503.532%" id="y"><stop stop-color="#93C021" offset="0%"/><stop stop-color="#93C021" offset="40%"/><stop stop-color="#85B826" offset="50%"/><stop stop-color="#137633" offset="90%"/><stop stop-color="#0E6632" offset="100%"/></linearGradient><linearGradient x1="50%" y1="100%" x2="50%" y2="0%" id="z"><stop stop-color="#FFF" offset="0%"/><stop stop-color="#B0AFB1" offset="100%"/></linearGradient><linearGradient x1="50%" y1="100%" x2="50%" y2="0%" id="A"><stop stop-color="#FFF" offset="0%"/><stop stop-color="#B0AFB1" offset="100%"/></linearGradient><linearGradient x1="50.006%" y1="100%" x2="50.006%" y2="0%" id="B"><stop stop-color="#FFF" offset="0%"/><stop stop-color="#B0AFB1" offset="100%"/></linearGradient><filter x="-8.5%" y="-13.5%" width="117%" height="127%" filterUnits="objectBoundingBox" id="c"><feOffset dy="2" in="SourceAlpha" result="shadowOffsetOuter1"/><feGaussianBlur stdDeviation="10" in="shadowOffsetOuter1" result="shadowBlurOuter1"/><feColorMatrix values="0 0 0 0 0 0 0 0 0 0 0 0 0 0 0 0 0 0 0.5 0" in="shadowBlurOuter1" result="shadowMatrixOuter1"/><feMerge><feMergeNode in="shadowMatrixOuter1"/><feMergeNode in="SourceGraphic"/></feMerge></filter><path id="a" d="M0 0h632v61H0z"/></defs><g fill="none" fill-rule="evenodd"><g transform="translate(0 32)"><mask id="b" fill="#fff"><use xlink:href="#a"/></mask><path fill="#000" mask="url(#b)" d="M377.788-10L417.2 29.414h175.942l-63.808 63.81h-15.69l-45.377 45.328-72.067.11-4.978 10.516v37.707l-2.707 1.563v66.29l-12.785 7.158 2.564 10.696h13.633l7.37 27.53L449.317 328H182.688l50.012-27.877 7.37-27.531h13.636l2.564-10.696-12.786-7.157V188.45l-2.71-1.563v-37.71l-4.975-10.516-72.07-.11-45.373-45.329h-15.69L38.858 29.414H214.8L254.212-10z"/></g><g filter="url(#c)" transform="translate(63 32)"><path fill="#1D1D1B" fill-rule="nonzero" d="M163.386 316l15.629-8.68 6.35-23.634h13.883l6.707-27.883-14.503-8.09v-65.975l-2.708-1.558v-33.546l-9.196-19.355-74.62-.114-45.4-45.191H43.832L3 41.288h153.018L195.448 2h114.103l39.43 39.288H502l-40.833 40.686h-15.694l-45.4 45.191-74.621.114-9.196 19.355v33.546l-2.708 1.558v65.974l-14.506 8.091 6.71 27.883h13.884l6.35 23.633L341.613 316z"/><path d="M310.645 0h-115.29l-39.413 39.414H0l43.808 43.81h15.687l45.38 45.334 74.26.113 8.64 18.26v34.181l2.71 1.563v66.201l14.274 7.99-6.168 25.726h-13.846l-6.48 24.205L158.168 318h189.664l-20.1-11.203-6.48-24.205H307.41l-6.168-25.725 14.275-7.99v-66.202l2.706-1.563v-34.181l8.643-18.26 74.257-.113 45.383-45.335h15.687L506 39.414H350.058L310.645 0zm-1.239 2.992l39.413 39.414h149.959l-37.825 37.826h-15.687l-45.383 45.337-74.913.114-9.738 20.576v33.124l-2.706 1.563v66.176l-14.722 8.24 7.247 30.223h13.908l6.21 23.21 11.15 6.212H169.681l11.146-6.212 6.214-23.21h13.908l7.247-30.223-14.722-8.24v-66.176l-2.706-1.563v-33.124l-9.738-20.576-74.916-.114-45.38-45.337H45.047L7.222 42.406h149.96l39.412-39.414h112.812z" fill="#FFF" fill-rule="nonzero"/><path d="M242.534 286.996c-1.367 0-2.48-1.128-2.48-2.51 0-1.385 1.113-2.51 2.48-2.51 1.37 0 2.483 1.125 2.483 2.51 0 1.382-1.113 2.51-2.483 2.51zm.993-6.903V258.9l-35.544-20.837V198.16L206 197v42.13l35.544 20.838v20.125a4.503 4.503 0 00-3.474 4.393c0 2.488 2.002 4.514 4.464 4.514 2.464 0 4.466-2.026 4.466-4.514a4.503 4.503 0 00-3.473-4.393zm9.973-5.015c-1.38 0-2.502-1.081-2.502-2.406 0-1.324 1.121-2.406 2.502-2.406 1.377 0 2.502 1.082 2.502 2.406 0 1.325-1.125 2.406-2.502 2.406zm1-6.618V253h-1.998v15.46c-2.001.44-3.502 2.157-3.502 4.212 0 2.385 2.02 4.328 4.5 4.328s4.5-1.943 4.5-4.328c0-2.055-1.501-3.772-3.5-4.212zM57.927 63.99c-1.366 0-2.478-1.121-2.478-2.5 0-1.38 1.112-2.501 2.478-2.501a2.494 2.494 0 012.482 2.501c0 1.379-1.112 2.5-2.482 2.5zm14.01-3.499H62.27c-.453-2-2.224-3.5-4.344-3.5-2.46 0-4.46 2.018-4.46 4.5 0 2.48 2 4.498 4.46 4.498 2.12 0 3.891-1.5 4.344-3.5h8.823l10.04 10.513H48.681l-22.89-23.024H207L185.335 32l-1.434 1.4 17.554 14.58H21L47.86 75h37.93L71.937 60.491zM111.6 79.01a2.497 2.497 0 012.495 2.494A2.497 2.497 0 01111.599 84a2.497 2.497 0 01-2.492-2.495 2.497 2.497 0 012.492-2.494zm283.8 4.972a2.497 2.497 0 01-2.495-2.494 2.497 2.497 0 012.496-2.495 2.497 2.497 0 012.492 2.495 2.497 2.497 0 01-2.492 2.494zm0-6.982a4.492 4.492 0 00-4.489 4.488 4.492 4.492 0 004.49 4.487c1.966 0 3.623-1.28 4.227-3.044h34.464l-36.981 35.955h-97.265l-.231.134-46.132 26.676-46.098-26.659-.231-.134h-97.265L72.91 82.948h34.463c.604 1.764 2.261 3.044 4.227 3.044a4.492 4.492 0 004.49-4.488 4.492 4.492 0 00-4.49-4.487c-2.286 0-4.156 1.724-4.43 3.937H68l41.082 39.942h97.536L253.486 148l46.896-27.12h97.536L439 80.937h-39.168C399.557 78.724 397.687 77 395.4 77zm52.669-18.011a2.493 2.493 0 012.481 2.5 2.493 2.493 0 01-2.481 2.501c-1.366 0-2.478-1.122-2.478-2.5 0-1.379 1.112-2.501 2.478-2.501zm-143.527-11.01l17.554-14.58L320.662 32 299 49.978h181.209l-22.891 23.024h-32.45l10.04-10.513h8.82c.453 2 2.224 3.5 4.341 3.5 2.463 0 4.464-2.018 4.464-4.5 0-2.48-2-4.498-4.464-4.498-2.117 0-3.89 1.5-4.341 3.5h-9.666L420.21 75h37.93L485 47.98H304.542z" fill="#FFF" fill-rule="nonzero"/><path fill="#FFF" fill-rule="nonzero" d="M176.603 34.126l23.343-23.121 107.108-.017 23.343 23.122-10.903 8.873H342l-1.998-1.988H325.08l8.24-6.701L307.916 9l-108.83.017-25.406 25.294 8.241 6.7h-14.922L165 43h22.506zm3.397 76.89v1.928h27.984L252.98 138l45.04-25.073H326V111h-28.48l-44.55 24.772-44.49-24.756zm66.521 118.644L226.006 218 216 223.67v10.592L242.217 249l11.028-4.854 6.561 2.869.194-17.37-6.758-3.805zm-24.166-62.552a.638.638 0 00-.71 0l-2.496 2.212c-.094.07-.149.163-.149.26v7.053c0 .203.225.367.502.367h4.996c.277 0 .502-.164.502-.367v-7.053c0-.097-.055-.19-.146-.26l-2.5-2.212zm-3.675.745l2.213-2.498a.641.641 0 000-.71l-2.212-2.498a.331.331 0 00-.261-.147h-7.053c-.203 0-.367.225-.367.502v4.996c0 .277.164.502.367.502h7.053a.33.33 0 00.26-.147zm2.965-3.96a.64.64 0 00.71 0l2.499-2.213c.091-.07.146-.163.146-.26v-7.053c0-.203-.225-.367-.502-.367h-4.996c-.277 0-.502.164-.502.367v7.053c0 .097.055.19.15.26l2.495 2.213zm2.462.462l2.212 2.498a.33.33 0 00.261.147h7.053c.203 0 .367-.225.367-.502v-4.997c0-.276-.164-.501-.367-.501h-7.053a.33.33 0 00-.26.147l-2.213 2.498a.641.641 0 000 .71z"/><path d="M233.528 278.02c-1.38 0-2.507-1.115-2.507-2.48s1.126-2.477 2.507-2.477c1.383 0 2.506 1.112 2.506 2.477 0 1.365-1.123 2.48-2.506 2.48zm-11.396-128.403c8.82 0 15.97 7.07 15.97 15.793 0 8.724-7.15 15.792-15.97 15.792-8.817 0-15.966-7.068-15.966-15.792 0-8.723 7.15-15.793 15.966-15.793zm22.871 28.509c.83 0 1.501.664 1.501 1.485 0 .82-.672 1.487-1.501 1.487h-5.902c-.83 0-1.5-.667-1.5-1.487 0-.82.67-1.485 1.5-1.485h5.902zm-10.476 93.076v-8.871l-33.882-19.384v-63.342l15.453 8.681v15.597l23.003 13.06 6.471-3.668 7.428 4.212-.099-60.312L220.761 139 196 153.227v23.766l2.643 1.485v65.516l33.882 19.668v7.54c-2.003.453-3.507 2.22-3.507 4.338 0 2.458 2.024 4.46 4.51 4.46 2.485 0 4.509-2.002 4.509-4.46 0-2.119-1.504-3.888-3.51-4.338zM279 155a4 4 0 100 8 4 4 0 000-8zm10.001 0a4 4 0 10-.002 8 4 4 0 00.002-8zM279 166a4 4 0 100 8 4 4 0 000-8zm10.001 0a4 4 0 10-.003 8 4 4 0 00.003-8z" fill="#FFF" fill-rule="nonzero"/><path d="M284.002 179.994c-8.27 0-14.996-6.726-14.996-14.994s6.726-14.994 14.996-14.994c8.266 0 14.992 6.726 14.992 14.994s-6.726 14.994-14.992 14.994zm0-31.994c-9.377 0-17.002 7.626-17.002 17 0 9.375 7.625 17 17.002 17 9.373 0 16.998-7.625 16.998-17 0-9.374-7.625-17-16.998-17z" fill="#FFF" fill-rule="nonzero"/><path d="M335.725 314h-166.45l11.134-6.191 6.207-23.135h13.892l7.239-30.124-14.705-8.214v-65.96l-2.704-1.559v-33.016l-9.726-20.509-74.832-.114-45.329-45.19H44.782L7 42.287h149.79L196.158 3h112.684l39.368 39.286H498l-37.782 37.703h-15.67l-45.331 45.19-74.829.113-9.726 20.509v33.016l-2.704 1.558v65.961l-14.705 8.214 7.239 30.124h13.892l6.204 23.135L335.725 314zm-129.98-117.112v41.785l35.701 20.667v19.96c-1.995.455-3.488 2.23-3.488 4.357a4.485 4.485 0 008.969 0c0-2.126-1.493-3.902-3.488-4.357v-21.02l-35.701-20.667v-39.576l-1.992-1.15zm14.709-59.313l-24.635 14.28v23.856l2.63 1.49v65.762l33.708 19.742v7.568c-1.992.454-3.488 2.227-3.488 4.354a4.488 4.488 0 004.486 4.477 4.488 4.488 0 004.486-4.477c0-2.127-1.497-3.903-3.492-4.354v-8.905l-33.709-19.456v-63.58l15.374 8.714V202.7l22.886 13.11 6.438-3.68 7.39 4.227-.099-60.538-31.975-18.243zm31.051 114.262v15.993c-1.995.455-3.491 2.23-3.491 4.357a4.488 4.488 0 004.486 4.477 4.488 4.488 0 004.486-4.477c0-2.126-1.496-3.902-3.488-4.357v-15.993h-1.993zm-25.835-34.614l-9.856 5.66v10.573l25.823 14.712 10.863-4.846 6.463 2.864.19-17.34-6.656-3.797-6.62 3.813-20.207-11.64zm57.524-69.892c-9.31 0-16.882 7.557-16.882 16.846 0 9.29 7.572 16.846 16.882 16.846 9.308 0 16.88-7.555 16.88-16.846 0-9.289-7.572-16.846-16.88-16.846zM67.148 79.94l41.052 39.835h97.466l46.834 27.031 46.862-27.048h97.466l41.052-39.835h-39.14c-.274-2.207-2.143-3.927-4.428-3.927a4.484 4.484 0 00-4.486 4.476 4.484 4.484 0 004.486 4.475c1.964 0 3.62-1.276 4.224-3.036h34.439L396.02 117.77h-97.195l-.23.134-46.1 26.605-46.064-26.588-.23-.134h-97.195L72.053 81.928h34.438c.604 1.76 2.26 3.036 4.225 3.036a4.485 4.485 0 004.486-4.475 4.484 4.484 0 00-4.486-4.476c-2.285 0-4.154 1.72-4.428 3.927h-39.14zm112.53 30.407v1.988H207.6l44.895 25.846 44.938-25.863h27.917v-1.988h-28.416l-44.448 25.553-44.39-25.536H179.68zM20.19 47.72l26.997 26.882h38.12L71.386 60.168H61.67a4.486 4.486 0 00-4.367-3.483 4.484 4.484 0 00-4.483 4.477 4.484 4.484 0 004.483 4.475 4.487 4.487 0 004.367-3.481h8.867l10.09 10.458H48.012L25.006 49.708H207.13l-21.774-17.886-1.441 1.392 17.642 14.506H20.19zm413.453 12.43L419.72 74.586h38.12l26.997-26.882H303.47l17.642-14.506-1.44-1.392L297.9 49.691h182.122l-23.006 22.906h-32.613l10.09-10.459h8.864a4.485 4.485 0 004.363 3.482 4.485 4.485 0 004.486-4.476 4.482 4.482 0 00-8.849-.993h-9.714zM166.254 40.519l-1.992 1.988h22.443l-10.872-8.873 23.277-23.12 106.807-.018 23.278 23.12-10.872 8.874h22.442l-1.992-1.988h-14.88l8.217-6.7-25.334-25.294-108.525.017-25.334 25.293 8.218 6.7h-14.88zm76.187 245.628a2.494 2.494 0 01-2.491-2.489 2.492 2.492 0 014.985 0 2.495 2.495 0 01-2.494 2.49zm10.059-11.47a2.495 2.495 0 01-2.494-2.49 2.495 2.495 0 014.988 0c0 1.371-1.12 2.49-2.494 2.49zm-141.784-191.7a2.492 2.492 0 01-2.491-2.487 2.492 2.492 0 014.985 0 2.493 2.493 0 01-2.494 2.487zm283.596-.016a2.493 2.493 0 01-2.494-2.488 2.493 2.493 0 014.985 0 2.492 2.492 0 01-2.491 2.488zM57.305 63.65a2.492 2.492 0 01-2.491-2.488 2.493 2.493 0 014.984 0 2.493 2.493 0 01-2.494 2.487zm390.415-.018a2.492 2.492 0 01-2.49-2.488 2.493 2.493 0 014.984 0 2.493 2.493 0 01-2.494 2.488z" fill="url(#d)"/><path d="M347.832 318H158.168l20.097-11.203 6.48-24.205h13.846l6.168-25.725-14.275-7.99v-66.202l-2.71-1.563v-34.181l-8.64-18.26-74.26-.113-45.38-45.335H43.809L0 39.414h155.942L195.355 0h115.29l39.413 39.414H506l-43.808 43.81h-15.687l-45.383 45.334-74.257.113-8.643 18.26v34.181l-2.706 1.563v66.201l-14.275 7.99 6.168 25.726h13.843l6.48 24.205 20.1 11.203zm-160.79-32.415l-6.215 23.21-11.146 6.212h166.638l-11.15-6.212-6.21-23.21H305.05l-7.247-30.223 14.722-8.24v-66.176l2.706-1.563v-33.124l9.738-20.576 74.913-.114 45.383-45.337h15.687l37.825-37.826h-149.96l-39.41-39.414H196.594L157.18 42.406H7.222l37.825 37.826h15.687l45.38 45.337 74.916.114 9.738 20.576v33.124l2.706 1.563v66.176l14.722 8.24-7.247 30.223h-13.908z" fill="url(#e)"/><path d="M242.534 289c-2.462 0-4.464-2.026-4.464-4.514a4.503 4.503 0 013.474-4.393v-20.125L206 239.131V197l1.983 1.159v39.903l35.544 20.837v21.194a4.503 4.503 0 013.473 4.393c0 2.488-2.002 4.514-4.466 4.514zm0-7.023c-1.367 0-2.48 1.124-2.48 2.51 0 1.38 1.113 2.509 2.48 2.509 1.37 0 2.483-1.128 2.483-2.51 0-1.385-1.113-2.51-2.483-2.51z" fill="url(#f)"/><path d="M253.5 277c-2.48 0-4.5-1.943-4.5-4.328 0-2.055 1.501-3.772 3.502-4.212V253h1.999v15.46c1.998.44 3.499 2.157 3.499 4.212 0 2.385-2.02 4.328-4.5 4.328zm0-6.734c-1.38 0-2.502 1.082-2.502 2.406 0 1.325 1.121 2.406 2.502 2.406 1.377 0 2.502-1.081 2.502-2.406 0-1.324-1.125-2.406-2.502-2.406z" fill="url(#g)"/><path d="M85.79 75H47.86L21 47.98h180.455L183.901 33.4l1.434-1.4L207 49.978H25.791l22.89 23.024h32.452L71.094 62.489h-8.823c-.453 2-2.224 3.5-4.344 3.5-2.46 0-4.46-2.018-4.46-4.499 0-2.48 2-4.5 4.46-4.5 2.12 0 3.891 1.5 4.344 3.501h9.666L85.79 75zM57.927 58.989c-1.366 0-2.478 1.122-2.478 2.501 0 1.379 1.112 2.5 2.478 2.5a2.493 2.493 0 002.482-2.5 2.494 2.494 0 00-2.482-2.501z" fill="url(#h)"/><path d="M253.486 148l-46.868-27.104h-97.536L68 80.954h39.168c.275-2.213 2.145-3.937 4.431-3.937a4.492 4.492 0 014.49 4.487 4.492 4.492 0 01-4.49 4.488c-1.966 0-3.623-1.28-4.227-3.044H72.908l36.981 35.955h97.265l.231.134 46.098 26.66 46.132-26.677.231-.134h97.265l36.98-35.955h-34.463c-.604 1.764-2.261 3.044-4.227 3.044a4.492 4.492 0 01-4.49-4.487 4.492 4.492 0 014.49-4.488c2.286 0 4.156 1.724 4.43 3.938H439l-41.082 39.941h-97.536L253.486 148zM111.6 79.01a2.497 2.497 0 00-2.492 2.494A2.497 2.497 0 00111.599 84a2.497 2.497 0 002.496-2.495 2.497 2.497 0 00-2.496-2.494zm283.802-.017a2.497 2.497 0 00-2.496 2.495 2.497 2.497 0 002.496 2.494 2.497 2.497 0 002.492-2.494 2.497 2.497 0 00-2.492-2.495z" fill="url(#i)"/><path d="M458.139 75h-37.93l13.853-14.509h9.666c.45-2 2.224-3.5 4.341-3.5 2.463 0 4.464 2.018 4.464 4.499 0 2.48-2 4.498-4.464 4.498-2.117 0-3.888-1.5-4.341-3.499h-8.82l-10.04 10.513h32.45l22.89-23.024H299L320.662 32l1.434 1.4-17.554 14.58H485L458.139 75zm-10.07-16.011c-1.366 0-2.478 1.122-2.478 2.5 0 1.38 1.112 2.501 2.478 2.501a2.493 2.493 0 002.481-2.5 2.493 2.493 0 00-2.481-2.501z" fill="url(#j)"/><path fill="url(#k)" d="M187.506 43H165l1.998-1.988h14.922l-8.24-6.701 25.405-25.294L307.915 9l25.406 25.294-8.241 6.701h14.922L342 42.983h-22.506l10.903-8.873-23.343-23.122-107.108.017-23.343 23.121z"/><path d="M233.132 278a2.494 2.494 0 01-2.486-2.491 2.491 2.491 0 012.486-2.488 2.49 2.49 0 010 4.979zm-11.3-97.267c-8.743 0-15.832-7.101-15.832-15.866 0-8.763 7.09-15.867 15.832-15.867 8.747 0 15.836 7.104 15.836 15.867 0 8.765-7.09 15.866-15.836 15.866zm.004-14.364a.605.605 0 00-.36.11l-2.516 2.242c-.095.07-.15.165-.15.263v7.148c0 .206.227.372.506.372h5.036c.28 0 .506-.166.506-.372v-7.148a.34.34 0 00-.147-.263l-2.52-2.243a.602.602 0 00-.355-.109zm-11.35-4.254c-.205 0-.37.213-.37.476v4.739c0 .263.165.476.37.476h7.133a.34.34 0 00.264-.14l2.237-2.37a.577.577 0 000-.672l-2.237-2.37a.34.34 0 00-.264-.14h-7.132zm15.563-.186a.34.34 0 00-.264.139l-2.237 2.37a.577.577 0 000 .672l2.237 2.37c.07.089.166.14.264.14h7.132c.206 0 .372-.214.372-.477v-4.739c0-.262-.166-.475-.372-.475h-7.132zm-6.733-8.699c-.28 0-.506.167-.506.373v7.147c0 .099.055.193.15.263l2.516 2.243a.607.607 0 00.36.109.604.604 0 00.355-.11l2.52-2.242a.339.339 0 00.147-.263v-7.147c0-.206-.227-.373-.506-.373h-5.036zm25.196 27.398h-5.853c-.822 0-1.488-.67-1.488-1.494a1.49 1.49 0 011.488-1.492h5.853a1.49 1.49 0 011.488 1.492c0 .824-.666 1.494-1.488 1.494z" fill="url(#l)"/><path fill="url(#m)" d="M252.98 138l-44.996-25.056H180v-1.928h28.48l44.49 24.756L297.52 111H326v1.927h-27.98z"/><path fill="url(#n)" d="M242.217 249L216 234.262V223.67l10.006-5.67 20.515 11.66 6.72-3.82 6.759 3.805-.194 17.37-6.561-2.87z"/><path d="M224.498 177h-4.996c-.277 0-.502-.164-.502-.367v-7.053c0-.097.055-.19.15-.26l2.495-2.212a.602.602 0 01.357-.108.6.6 0 01.353.108l2.499 2.212c.091.07.146.163.146.26v7.053c0 .203-.225.367-.502.367z" fill="url(#o)"/><path d="M218.42 168h-7.053c-.203 0-.367-.225-.367-.502v-4.996c0-.277.164-.502.367-.502h7.053c.097 0 .191.053.26.147l2.213 2.499a.641.641 0 010 .709l-2.212 2.498a.33.33 0 01-.261.147z" fill="url(#p)"/><path d="M222.002 164a.604.604 0 01-.357-.107l-2.496-2.213c-.094-.07-.149-.163-.149-.26v-7.053c0-.203.225-.367.502-.367h4.996c.277 0 .502.164.502.367v7.053c0 .097-.055.19-.146.26l-2.5 2.213a.601.601 0 01-.352.107z" fill="url(#q)"/><path d="M233.633 167h-7.053a.33.33 0 01-.26-.147l-2.213-2.498a.641.641 0 010-.71l2.212-2.498a.33.33 0 01.261-.147h7.053c.203 0 .367.225.367.501v4.997c0 .277-.164.502-.367.502z" fill="url(#r)"/><path d="M233.528 280c-2.486 0-4.51-2.002-4.51-4.46 0-2.119 1.504-3.885 3.507-4.338v-7.54l-33.882-19.668v-65.516L196 176.993v-23.766L220.761 139l32.14 18.175.099 60.312-7.428-4.212-6.47 3.667-23.004-13.059v-15.597l-15.453-8.681v63.342l33.882 19.384v8.871c2.006.45 3.51 2.22 3.51 4.338 0 2.458-2.024 4.46-4.51 4.46zm0-6.937c-1.38 0-2.507 1.112-2.507 2.477 0 1.365 1.126 2.48 2.507 2.48 1.383 0 2.506-1.115 2.506-2.48s-1.123-2.477-2.506-2.477zm-11.396-123.446c-8.817 0-15.966 7.07-15.966 15.793 0 8.724 7.15 15.792 15.966 15.792 8.82 0 15.97-7.068 15.97-15.792 0-8.723-7.15-15.793-15.97-15.793zm16.97 28.509c-.83 0-1.502.664-1.502 1.485 0 .82.672 1.487 1.501 1.487h5.902c.83 0 1.501-.667 1.501-1.487 0-.82-.672-1.485-1.501-1.485h-5.902z" fill="url(#s)"/><path d="M284.002 180c-8.274 0-15.002-6.728-15.002-15 0-8.271 6.728-15 15.002-15 8.27 0 14.998 6.729 14.998 15 0 8.272-6.728 15-14.998 15zm5.745-13.992a4.276 4.276 0 10-.005 8.552 4.276 4.276 0 00.005-8.552zm-11.242 0a4.275 4.275 0 100 8.55 4.275 4.275 0 000-8.55zm11.242-10.566a4.276 4.276 0 10-.004 8.552 4.276 4.276 0 00.004-8.552zm-11.242 0a4.275 4.275 0 100 8.55 4.275 4.275 0 000-8.55z" fill="url(#t)"/><path d="M279 163a4 4 0 110-8 4 4 0 010 8z" fill="url(#u)"/><path d="M289.001 163a4 4 0 11-.002-8 4 4 0 01.002 8z" fill="url(#v)"/><path d="M279 174a4 4 0 110-8 4 4 0 010 8z" fill="url(#w)"/><path d="M289.001 174a4 4 0 11-.003-8 4 4 0 01.003 8z" fill="url(#x)"/><path d="M284.002 182c-9.377 0-17.002-7.625-17.002-17 0-9.374 7.625-17 17.002-17 9.373 0 16.998 7.626 16.998 17 0 9.375-7.625 17-16.998 17zm0-31.994c-8.27 0-14.996 6.726-14.996 14.994s6.726 14.994 14.996 14.994c8.266 0 14.992-6.726 14.992-14.994s-6.726-14.994-14.992-14.994z" fill="url(#y)"/><path d="M211.436 25.017c-1.388-.265-2.686-.543-3.993-.75a2.772 2.772 0 01-1.51-.734c-.111-.104-.3-.18-.22-.377.075-.184.261-.153.42-.153h5.605c.486.001.971.013 1.453-.002.327-.01.545.12.71.386.293.484.579.976.903 1.44.258.371.202.665-.066 1.002-.949 1.197-1.87 2.415-2.823 3.61-.252.318-.314.534-.028.898.928 1.17 1.793 2.384 2.696 3.57.283.37.426.757.417 1.223a403.916 403.916 0 00-.04 5.138c-.004.398-.072.7-.561.729-.467.027-.744-.118-.806-.623-.18-1.47-.398-2.937-.576-4.407-.056-.465-.215-.822-.607-1.117a93.349 93.349 0 01-2.987-2.348c-.262-.212-.467-.286-.744-.063-1.099.893-2.368 1.1-3.769 1.054-1.793-.06-3.591.028-5.387.048-.442.005-1.407-.707-1.506-1.12-.097-.409.246-.413.498-.449 1.083-.154 2.169-.29 3.252-.438 1.21-.163 2.418-.333 3.625-.496.18-.024.346-.042.483-.188 1.827-1.922 3.657-3.838 5.561-5.833z" fill="#FFF" fill-rule="nonzero"/><path d="M214 22.474A2.471 2.471 0 01216.478 20 2.494 2.494 0 01219 22.505c-.007 1.352-1.137 2.483-2.489 2.495-1.381.011-2.518-1.133-2.511-2.526zm19.616 4.289c.006-1.727-1.26-2.799-2.918-2.806l-4.435-.022-.022 5.65 4.436.023c1.656.007 2.933-1.057 2.94-2.845zm-.466 14.218l-3.848-7.458-3.073-.013-.027 7.438-4.202-.015.079-20.933 9.224.036c4.115.02 6.646 2.888 6.63 6.776-.012 3.674-2.24 5.67-4.368 6.195L238 41l-4.85-.019zm7.85-.041l.084-20.94 14.916.06-.013 3.922-10.432-.042-.017 4.396 10.21.042-.02 3.925-10.206-.042-.02 4.772 10.43.042-.016 3.925zm30.687-14.13c.006-1.76-1.267-2.836-2.93-2.843l-4.465-.02-.022 5.632 4.465.019c1.66.007 2.946-1.056 2.952-2.787zM260 40.983L260.08 20l9.283.04c4.31.02 6.652 3.111 6.637 6.787-.012 3.65-2.403 6.725-6.686 6.706l-5.059-.021-.03 7.488-4.225-.018zm17-.034L277.081 20l4.368.015-.066 17.023 8.617.035-.016 3.927zm18.759.033l.034-8.575L288 20l4.962.021 5.022 8.402 5.085-8.36 4.931.02-7.859 12.343L300.11 41zM197 308.953l11.935.047.012-3.365-8.344-.031.015-4.093 8.167.032.012-3.365-8.167-.031.012-3.77 8.346.035.012-3.365-11.938-.047zm18.611-12.949c.003-1.044.932-1.72 2.564-1.714 1.848.006 3.806.615 5.27 1.927l2.159-2.764c-1.79-1.598-4.18-2.444-7.064-2.453-4.27-.015-6.89 2.377-6.903 5.278-.025 6.559 10.43 4.48 10.417 7.508-.003 1.02-1.014 1.933-3.163 1.924a8.127 8.127 0 01-5.758-2.399L211 306.203c1.708 1.653 4.206 2.785 7.717 2.797 4.868.018 7.27-2.377 7.283-5.564.025-6.504-10.401-4.687-10.389-7.432zm20.571 3.222l-4.185-.016.02-4.826 4.185.016c1.56.006 2.759.926 2.752 2.438-.006 1.483-1.209 2.394-2.772 2.388zm.592-8.198l-8.706-.028-.068 17.987 3.961.013.026-6.416 4.741.016c4.017.012 6.256-2.62 6.272-5.75.01-3.154-2.184-5.806-6.226-5.822zm16.217 14.683c-3.202-.012-5.233-2.495-5.22-5.732.011-3.262 2.06-5.705 5.262-5.693 3.178.012 5.209 2.47 5.197 5.732-.012 3.234-2.062 5.705-5.239 5.693zm.054-14.71c-5.214-.022-9.027 3.72-9.045 8.966-.02 5.243 3.764 9.015 8.979 9.033 5.193.021 9.003-3.724 9.02-8.967.022-5.243-3.76-9.015-8.954-9.033zm19.088 8.233l-4.157-.016.016-4.84 4.16.013c1.554.007 2.743.925 2.736 2.407-.006 1.533-1.201 2.442-2.755 2.436zm6.802-2.395c.013-3.338-2.36-5.792-6.214-5.808l-8.65-.031-.071 17.947 3.937.012.026-6.375 2.885.01 3.604 6.39L279 309l-4.16-6.848c2-.452 4.082-2.166 4.095-5.313zm1.065-2.472l5.128.019-.052 14.598 3.759.016.055-14.598 5.1.019.01-3.368-13.988-.053zm15.637 1.911c-.025 6.556 10.428 4.477 10.415 7.508-.003 1.02-1.014 1.93-3.162 1.92a8.133 8.133 0 01-5.754-2.395L295 306.203c1.708 1.65 4.208 2.785 7.715 2.797 4.867.018 7.272-2.38 7.285-5.567.022-6.504-10.4-4.687-10.39-7.43.003-1.043.932-1.719 2.564-1.716 1.85.01 3.805.615 5.269 1.927l2.158-2.76c-1.787-1.602-4.176-2.445-7.063-2.454-4.268-.018-6.888 2.377-6.901 5.278zM254.678 70.43c6.709.005 13.421.027 20.13-.02.533-.003 1.425-.374 1.53-.754 1.27-4.442 2.42-8.919 3.662-13.624l-2.207-.001L234.51 56c-3.662-.002-3.671-.005-4.645 3.642-.943 3.526-1.865 7.057-2.866 10.852l14.722.01-8.81 33.482 19.6.014c2.764-10.377 5.516-20.718 8.297-31.162-2.811-.747-5.312-1.41-7.815-2.076l.06-.333 1.624.002zm39.644 19.27c.122-.664.163-1.11.288-1.532 1.205-4.042.219-3.27 4.396-3.3 6.836-.048 13.675.012 20.511-.032.57-.004 1.522-.333 1.641-.708.892-2.833 1.619-5.715 2.468-8.846l-25.268-.017.295-2.404-7.892-2.094.066-.332c4.91.003 30.024-.009 37.674.055 1.221.01 1.75-.35 2.007-1.508C330.91 67.16 334 56.155 334 56.155s-33.41-.1-49.401-.155c-1.26-.005-1.672.46-1.973 1.56-4.074 14.965-12.504 45.833-12.626 46.405l50.87.035 3.88-14.28-30.428-.02zm-93.374-12.902c-1.034 3.81-2.112 7.609-3.088 11.433-.289 1.127-.777 1.528-1.988 1.483-2.743-.103-5.493-.036-8.534-.038 1.544-5.688 3.032-11.158 4.573-16.828l-8.003-2.112c.021-.086.04-.172.059-.258l18.662.013c-.584 2.19-1.125 4.25-1.68 6.307zm21.937-20.767c-14.654-.023-29.312-.031-43.967-.031-2.209 0-2.808.478-3.383 2.593a92394.52 92394.52 0 00-11.268 41.399c-.77 2.836.096 3.974 3.023 3.978 7.241.01 36.324.028 43.622.03 2.386 0 2.904-.375 3.517-2.614 3.784-13.85 7.561-27.7 11.333-41.553.715-2.616-.162-3.798-2.877-3.802zM166.792 70.11a2.582 2.582 0 002.5-1.99L173 56.05 98 56l21.998 5.812-2.14 8.163 14.987.01-9.646 33.962a2.544 2.544 0 001.6 3.083L141.3 113l11.102-40.617-7.845-2.086 22.234-.188zM372.98 56.472c-1.63.01-2.406.28-3.145 1.441-3.397 5.349-10.99 16.942-11.6 17.803-.16-1.203-1.393-11.692-1.966-16.212-.218-1.734-1.686-3.041-3.419-3.047-5.053-.016-10.107.035-15.157-.044a2.265 2.265 0 00-2.232 1.702c-2.877 10.99-5.835 21.96-8.768 32.934-1.219 4.572-2.44 9.144-3.693 13.831l19.998.014c1.81-6.759 3.61-13.47 5.451-20.346l-7.805-2.089.065-.24 8.466.006c.816 7.044 1.62 13.97 2.478 21.406 3.702-5.644 7.1-10.822 10.495-16l.32.136c-1.028 3.853-2.767 10.372-3.777 14.164-.403 1.508.72 2.986 2.269 2.993l16.816.076s6.423-23.782 11-40.784L416 56s-40.4.458-43.02.472z" fill="#FFF" fill-rule="nonzero"/><path d="M360.802 103.924a2.19 2.19 0 01-1.747-.876 2.223 2.223 0 01-.376-1.923l3.815-14.307-.561-.238-10.343 15.766-2.45-21.138-8.729-.006-.135.505 7.81 2.09-5.382 20.098L323 103.88l3.648-13.647c.77-2.885 2.74-10.234 2.74-10.234H384c-3.223 11.941-6.15 22.775-6.48 24l-16.718-.076z" fill="url(#z)"/><path d="M384 80h-54.575c-.915 3.405-1.833 6.81-2.752 10.217-1.215 4.517-2.427 9.034-3.673 13.665l19.89.014c1.8-6.679 3.588-13.31 5.422-20.102l-7.763-2.064.064-.237 8.421.006c.811 6.96 1.61 13.803 2.464 21.149 3.683-5.577 7.062-10.693 10.438-15.808l.319.134c-1.023 3.807-2.752 10.248-3.756 13.994a2.346 2.346 0 002.256 2.957l16.725.075s3.1-11.403 6.52-24zm-.401.307c-3.095 11.405-5.908 21.74-6.355 23.385l-16.486-.074a2.025 2.025 0 01-1.617-.805 2.036 2.036 0 01-.348-1.765l1.441-5.364 2.314-8.63.07-.259-.247-.104-.202-.086-.113-.048-.236-.099-.138.213-9.976 15.108-1.304-11.172-1.065-9.144-.03-.271h-.273l-8.42-.006h-.234l-.06.227-.04.144-.025.093-.08.298.297.079 6.566 1.746.897.238-2.485 9.216-2.792 10.362-19.257-.013 2.137-7.947 1.432-5.332c.74-2.758 1.485-5.514 2.229-8.271l.462-1.72h53.938z" fill="#FFF" fill-rule="nonzero"/><path d="M271 103.965c.403-1.61 3.36-12.907 6.252-23.965h44.396c-.415 1.575-.754 2.79-1.096 3.919-.08.263-.895.605-1.454.608-2.04.014-4.08.018-6.12.018l-7.354-.005c-2.611 0-4.627.006-6.533.02h-.232c-.559 0-1.02-.014-1.393-.026a22.221 22.221 0 00-.687-.016c-1.215 0-1.298.329-1.695 1.906-.107.424-.238.953-.424 1.6a7.463 7.463 0 00-.184.95c-.027.188-.06.393-.1.624l-.03.184 29.654.02L320.298 104 271 103.965z" fill="url(#A)"/><path d="M321.663 80h-44.379c-3.228 12.26-6.211 23.62-6.284 23.965l49.244.035c1.23-4.695 2.459-9.386 3.756-14.323l-29.456-.02c.119-.667.158-1.114.28-1.538.854-2.977.57-3.35 1.958-3.35.463 0 1.118.041 2.064.041h.233c2.159-.016 4.32-.02 6.478-.02 2.438 0 4.872.005 7.309.005 2.022 0 4.047-.004 6.069-.017.551-.004 1.473-.334 1.588-.71.406-1.337.776-2.688 1.14-4.068zm-.394.308a109.194 109.194 0 01-1.034 3.668c-.06.17-.773.49-1.3.493-1.759.012-3.686.018-6.07.018-1.218 0-2.436-.002-3.652-.003-1.218-.001-2.437-.003-3.656-.003a867.51 867.51 0 00-6.711.021c-.552 0-1.01-.015-1.376-.026a22.11 22.11 0 00-.688-.016c-1.325 0-1.443.463-1.831 1.998-.103.418-.237.938-.419 1.575a7.762 7.762 0 00-.188.958c-.027.183-.057.384-.097.61l-.063.363h.36l13.932.01 15.127.01-2.789 10.639-.803 3.069-24.357-.017-24.263-.018c.543-2.122 3.356-12.829 6.123-23.349h43.755z" fill="#FFF" fill-rule="nonzero"/><path fill="url(#B)" d="M232 103.986L238.309 80H258l-6.389 24z"/><path d="M258 80h-19.708c-2.105 8.03-4.194 15.985-6.292 23.986l19.626.014c2.126-7.996 4.245-15.984 6.374-24zm-.394.309l-3.26 12.274-2.95 11.108-6.685-.005-12.317-.008.196-.741 5.935-22.628h19.081z" fill="#FFF" fill-rule="nonzero"/><path d="M210.022 104c-7.168-.002-35.933-.02-42.936-.03-1.415-.002-2.278-.279-2.721-.87-.45-.599-.483-1.546-.104-2.98 1.21-4.608 2.425-9.215 3.639-13.822L169.557 80h19.626l-2.566 9.743h.33c.838 0 1.655-.005 2.453-.01.767-.005 1.52-.01 2.26-.01 1.418 0 2.513.018 3.553.058.06.002.119.004.177.004 1.116 0 1.64-.442 1.933-1.63A452.499 452.499 0 01199.442 80H219l-1.75 6.628c-1.305 4.943-2.607 9.886-3.913 14.828-.587 2.211-1.018 2.544-3.309 2.544h-.006z" fill="url(#C)"/><path d="M220 80h-20.106a436.41 436.41 0 00-2.175 8.167c-.273 1.074-.727 1.492-1.807 1.492a94.96 94.96 0 00-3.774-.06c-1.535 0-3.107.019-4.768.019h-.13c.876-3.25 1.733-6.432 2.593-9.618h-20.175l-5.392 19.975c-.767 2.849.093 3.99 3.01 3.995 7.212.01 36.17.028 43.44.03h.006c2.37 0 2.886-.378 3.496-2.625 1.93-7.124 3.855-14.25 5.782-21.375zm-.405.308l-1.708 6.318c-1.321 4.89-2.645 9.78-3.97 14.669-.569 2.105-.958 2.397-3.201 2.397-7.156-.002-36.204-.02-43.44-.03-1.358-.002-2.221-.263-2.633-.798-.414-.543-.442-1.461-.077-2.808 1.194-4.436 2.391-8.87 3.589-13.305l1.742-6.443h19.53l-.863 3.204-1.624 6.026-.105.388h.535c.848 0 1.67-.005 2.481-.01.774-.005 1.535-.01 2.287-.01 1.432 0 2.54.018 3.588.057.062.003.127.004.186.004 1.2 0 1.791-.483 2.107-1.725a430.068 430.068 0 012.11-7.934h19.466z" fill="#FFF" fill-rule="nonzero"/><path d="M126.598 107.049a2.424 2.424 0 01-1.51-2.918L131.926 80H152l-8.998 33-16.404-5.951z" fill="url(#D)"/><path d="M152 79h-20.128l-6.777 24.711c-.36 1.316.329 2.693 1.584 3.164L143.025 113 152 79zm-.402.314l-8.782 33.273-16.03-6.007c-1.098-.41-1.71-1.634-1.396-2.784l6.715-24.482h19.493z" fill="#FFF" fill-rule="nonzero"/></g></g></svg>