<?xml version="1.0" encoding="UTF-8"?>
<svg width="199px" height="54px" viewBox="0 0 199 54" version="1.1" xmlns="http://www.w3.org/2000/svg" xmlns:xlink="http://www.w3.org/1999/xlink">
    <title>Reply-Logo</title>
    <g id="Page-1" stroke="none" stroke-width="1" fill="none" fill-rule="evenodd">
        <g id="Totem-Desktop-Final" transform="translate(-1065.000000, -4436.000000)" fill="#FFFFFF">
            <g id="Partner" transform="translate(0.000000, 4274.000000)">
                <path d="M1103.8562,168.336397 C1104.32784,168.333423 1104.76696,168.581553 1105.01676,168.991769 L1105.01676,168.991769 L1107.84532,173.64555 C1108.14294,174.135474 1108.11464,174.762804 1107.77441,175.222379 L1107.77441,175.222379 L1101.11449,184.21144 L1099.42829,186.548336 L1107.4911,197.690862 C1107.93314,198.301517 1108.17027,199.042573 1108.16768,199.802973 L1108.16768,199.802973 L1108.11367,214.540057 C1108.11107,215.235756 1107.56006,215.798719 1106.88154,215.798719 L1106.88154,215.798719 L1105.94053,215.798719 C1105.32415,215.798719 1104.80274,215.331807 1104.71979,214.705811 L1104.71979,214.705811 L1102.96073,201.425826 C1102.89795,200.953578 1102.66018,200.524686 1102.2962,200.228197 L1102.2962,200.228197 L1093.05558,192.708242 L1088.67711,195.442013 C1088.09878,195.802869 1087.43718,195.999306 1086.76029,196.010645 L1086.76029,196.010645 L1068.48658,196.318474 C1067.95053,196.327145 1067.43563,196.102694 1067.0697,195.700482 L1067.0697,195.700482 L1065.22086,193.667746 C1064.76938,193.171152 1065.04912,192.359392 1065.70486,192.264008 L1065.70486,192.264008 L1084.634,189.506891 L1099.01617,173.658557 L1087.38969,171.412709 C1087.05661,171.348675 1086.74403,171.200597 1086.48023,170.982483 L1086.48023,170.982483 L1084.6044,169.431667 C1084.19651,169.09449 1084.4294,168.418467 1084.95341,168.418801 L1084.95341,168.418801 L1091.64748,168.424137 Z M1144.09012,171.160305 C1150.75842,171.160305 1154.88393,175.534441 1154.88393,181.49471 C1154.88393,187.118506 1151.286,190.194868 1147.83212,191.012154 L1155.07634,203.221374 L1147.20851,203.221374 L1140.92404,191.82944 L1135.93482,191.82944 L1135.93482,203.221374 L1129.12214,203.221374 L1129.12214,171.160305 L1144.09012,171.160305 Z M1182.55725,171.160305 L1182.55725,177.168749 L1166.5465,177.168749 L1166.5465,183.898257 L1182.21795,183.898257 L1182.21795,189.9067 L1166.5465,189.9067 L1166.5465,197.213256 L1182.55725,197.213256 L1182.55725,203.221374 L1159.65649,203.221374 L1159.65649,171.160305 L1182.55725,171.160305 Z M1203.77173,171.160305 C1210.79319,171.160305 1214.61832,175.870961 1214.61832,181.494815 C1214.61832,187.070554 1210.74473,191.781535 1203.77173,191.781535 L1195.54018,191.781535 L1195.54018,203.221374 L1188.66412,203.221374 L1188.66412,171.160305 L1203.77173,171.160305 Z M1224.86367,171.160305 L1224.86367,197.213256 L1239.0458,197.213256 L1239.0458,203.221374 L1217.67176,203.221374 L1217.67176,171.160305 L1224.86367,171.160305 Z M1239.56761,171.169244 L1247.73164,183.953838 L1255.89566,171.169244 L1263.86192,171.169244 L1251.24442,190.035401 L1251.24442,203.10725 L1244.21852,203.10725 L1244.21852,190.035401 L1231.55149,171.169244 L1239.56761,171.169244 Z M1143.13037,177.169013 L1135.93482,177.169013 L1135.93482,185.821057 L1143.13037,185.821057 C1145.81722,185.821057 1147.87981,184.186811 1147.87981,181.446921 C1147.87981,178.802934 1145.81722,177.169013 1143.13037,177.169013 Z M1202.80366,177.168749 L1195.54018,177.168749 L1195.54018,185.772766 L1202.80366,185.772766 C1205.51531,185.772766 1207.59751,184.138504 1207.59751,181.494815 C1207.59751,178.803011 1205.51531,177.168749 1202.80366,177.168749 Z M1113.09144,162 C1116.04029,162 1118.43511,164.393687 1118.43511,167.349866 C1118.43511,170.296921 1116.04029,172.687023 1113.09144,172.687023 C1110.13639,172.687023 1107.74809,170.296921 1107.74809,167.349866 C1107.74809,164.393687 1110.13639,162 1113.09144,162 Z" id="Reply-Logo"></path>
            </g>
        </g>
    </g>
</svg>